<svg xmlns="http://www.w3.org/2000/svg" viewBox="0 0 128 128">
  <rect width="128" height="128" rx="16" fill="#1a1a2e"/>
  <path d="M100.5 48.2a12 12 0 0 0-8.5-8.5C84 37.5 64 37.5 64 37.5s-20 0-28 2.2a12 12 0 0 0-8.5 8.5C25.5 56 25.5 64 25.5 64s0 8 2 15.8a12 12 0 0 0 8.5 8.5c8 2.2 28 2.2 28 2.2s20 0 28-2.2a12 12 0 0 0 8.5-8.5c2-7.8 2-15.8 2-15.8s0-8-2-15.8z" fill="#ff0000"/>
  <path d="M55.5 76.3V51.7L76 64l-20.5 12.3z" fill="#fff"/>
  <path d="M90 95h8v12h-8z" fill="#4caf50"/>
  <path d="M94 95l-8 6 8 6z" fill="#4caf50"/>
</svg>
